<?xml version="1.0" standalone="no"?>
<!DOCTYPE svg PUBLIC "-//W3C//DTD SVG 20010904//EN"
 "http://www.w3.org/TR/2001/REC-SVG-20010904/DTD/svg10.dtd">
<svg version="1.0" xmlns="http://www.w3.org/2000/svg"
 width="50.000000pt" height="50.000000pt" viewBox="0 0 50.000000 50.000000"
 preserveAspectRatio="xMidYMid meet">

<g transform="translate(0.000000,50.000000) scale(0.100000,-0.100000)"
fill="#000000" stroke="none">
<path d="M0 250 l0 -250 40 0 40 0 1 43 c1 23 2 85 3 139 1 53 4 100 9 104 4
4 7 17 7 29 0 33 30 85 54 94 11 5 77 7 146 6 69 -1 142 0 163 3 36 4 37 6 37
43 l0 39 -250 0 -250 0 0 -250z"/>
</g>
</svg>
