<?xml version="1.0" standalone="no"?>
<!DOCTYPE svg PUBLIC "-//W3C//DTD SVG 20010904//EN"
 "http://www.w3.org/TR/2001/REC-SVG-20010904/DTD/svg10.dtd">
<svg version="1.0" xmlns="http://www.w3.org/2000/svg"
 width="50.000000pt" height="50.000000pt" viewBox="0 0 50.000000 50.000000"
 preserveAspectRatio="xMidYMid meet">

<g transform="translate(0.000000,50.000000) scale(0.100000,-0.100000)"
fill="#000000" stroke="none">
<path d="M0 459 c0 -33 3 -40 16 -35 9 3 20 6 25 6 8 0 39 51 39 65 0 3 -18 5
-40 5 l-40 0 0 -41z"/>
<path d="M425 478 c4 -13 12 -28 19 -34 6 -7 21 -15 34 -19 20 -6 22 -3 22 34
l0 41 -41 0 c-37 0 -40 -2 -34 -22z"/>
<path d="M449 48 c-16 -18 -29 -36 -29 -40 0 -5 18 -8 40 -8 l40 0 0 40 c0 48
-12 50 -51 8z"/>
</g>
</svg>
