<?xml version="1.0" standalone="no"?>
<!DOCTYPE svg PUBLIC "-//W3C//DTD SVG 20010904//EN"
 "http://www.w3.org/TR/2001/REC-SVG-20010904/DTD/svg10.dtd">
<svg version="1.0" xmlns="http://www.w3.org/2000/svg"
 width="50.000000pt" height="50.000000pt" viewBox="0 0 50.000000 50.000000"
 preserveAspectRatio="xMidYMid meet">

<g transform="translate(0.000000,50.000000) scale(0.100000,-0.100000)"
fill="#000000" stroke="none">
<path d="M0 461 l0 -39 48 -6 c26 -3 83 -4 127 -2 44 1 93 -2 108 -7 20 -7 35
-6 52 3 16 8 41 11 70 6 76 -10 95 -1 95 45 l0 39 -250 0 -250 0 0 -39z"/>
<path d="M55 90 c-3 -5 -17 -10 -31 -10 -21 0 -24 -4 -24 -40 l0 -40 250 0
250 0 0 39 0 38 -61 7 c-34 3 -78 3 -99 0 -22 -4 -52 -2 -69 4 -21 7 -51 7
-101 0 -52 -8 -74 -8 -83 1 -14 14 -24 14 -32 1z"/>
</g>
</svg>
