<?xml version="1.0" standalone="no"?>
<!DOCTYPE svg PUBLIC "-//W3C//DTD SVG 20010904//EN"
 "http://www.w3.org/TR/2001/REC-SVG-20010904/DTD/svg10.dtd">
<svg version="1.0" xmlns="http://www.w3.org/2000/svg"
 width="50.000000pt" height="50.000000pt" viewBox="0 0 50.000000 50.000000"
 preserveAspectRatio="xMidYMid meet">

<g transform="translate(0.000000,50.000000) scale(0.100000,-0.100000)"
fill="#000000" stroke="none">
<path d="M0 461 l0 -39 48 -6 c68 -9 348 -9 405 -1 47 8 47 8 47 46 l0 39
-250 0 -250 0 0 -39z"/>
<path d="M0 40 l0 -40 40 0 c22 0 40 2 40 5 0 18 -26 55 -47 64 -33 15 -33 16
-33 -29z"/>
<path d="M451 51 c-41 -39 -39 -51 9 -51 l40 0 0 40 c0 22 -4 40 -9 40 -5 0
-23 -13 -40 -29z"/>
</g>
</svg>
