<?xml version="1.0" standalone="no"?>
<!DOCTYPE svg PUBLIC "-//W3C//DTD SVG 20010904//EN"
 "http://www.w3.org/TR/2001/REC-SVG-20010904/DTD/svg10.dtd">
<svg version="1.0" xmlns="http://www.w3.org/2000/svg"
 width="50.000000pt" height="50.000000pt" viewBox="0 0 50.000000 50.000000"
 preserveAspectRatio="xMidYMid meet">

<g transform="translate(0.000000,50.000000) scale(0.100000,-0.100000)"
fill="#000000" stroke="none">
<path d="M0 460 c0 -45 0 -44 33 -29 21 9 47 46 47 64 0 3 -18 5 -40 5 l-40 0
0 -40z"/>
<path d="M420 488 c1 -20 33 -55 58 -63 20 -6 22 -3 22 34 l0 41 -40 0 c-25 0
-40 -5 -40 -12z"/>
<path d="M0 40 l0 -40 41 0 41 0 -17 28 c-19 29 -44 52 -57 52 -4 0 -8 -18 -8
-40z"/>
<path d="M458 60 c-14 -11 -28 -29 -31 -40 -4 -18 0 -20 34 -20 39 0 39 0 39
40 0 45 -7 48 -42 20z"/>
</g>
</svg>
