<?xml version="1.0" standalone="no"?>
<!DOCTYPE svg PUBLIC "-//W3C//DTD SVG 20010904//EN"
 "http://www.w3.org/TR/2001/REC-SVG-20010904/DTD/svg10.dtd">
<svg version="1.0" xmlns="http://www.w3.org/2000/svg"
 width="50.000000pt" height="50.000000pt" viewBox="0 0 50.000000 50.000000"
 preserveAspectRatio="xMidYMid meet">

<g transform="translate(0.000000,50.000000) scale(0.100000,-0.100000)"
fill="#000000" stroke="none">
<path d="M0 461 l0 -39 53 -8 c28 -4 102 -8 162 -9 160 -2 196 -26 210 -141 8
-72 -9 -140 -39 -159 -28 -17 -130 -26 -184 -16 -25 5 -78 4 -123 -1 l-79 -11
0 -38 0 -39 250 0 250 0 0 250 0 250 -250 0 -250 0 0 -39z"/>
</g>
</svg>
